inDegrees=yes
name=IK-live
DataType=double
version=3
OpenSimVersion=4.1
endheader
time	pelvis_tilt	pelvis_list	pelvis_rotation	pelvis_tx	pelvis_ty	pelvis_tz	hip_flexion_r	hip_adduction_r	hip_rotation_r	knee_angle_r	ankle_angle_r	subtalar_angle_r	mtp_angle_r	hip_flexion_l	hip_adduction_l	hip_rotation_l	knee_angle_l	ankle_angle_l	subtalar_angle_l	mtp_angle_l	lumbar_extension	lumbar_bending	lumbar_rotation	neck_flex	neck_latbend	neck_rot	arm_flex_r	arm_add_r	arm_rot_r	elbow_flex_r	pro_sup_r	wrist_flex_r	wrist_dev_r	arm_flex_l	arm_add_l	arm_rot_l	elbow_flex_l	pro_sup_l	wrist_flex_l	wrist_dev_l
0	-4.466500931548334	-14.50729019405275	-101.5956270901454	0.2341366603171506	0.04326292228651554	-1.326684523481465	-22.57117169827992	-1.591976316804377	-3.241458145969817	5.899560354604904	2.451982624139334	1.987972377786656	0	-24.74788768789517	-3.395140484746916	-11.58000132048591	9.793848132074926	-0.4439473045988533	4.250290820099795	0	-21.37711699760957	1.659277491615732	3.206407148933037	0	0	0	89.43255010537881	-14.99769858261344	-0.4131036242043878	75.06608666630986	44.91348924023465	0	4.962718725166055	89.44271199246703	-15.02308150025719	-0.524828518490952	75.0583497022334	44.9645642233356	0	4.962718725166055
6.7758228	-10.08041385229555	-11.32645024080607	-127.1372809735462	0.2341366603171506	0.04326292228651554	-1.326684523481465	-22.57117169827992	-1.591976316804377	-3.241458145969817	5.899560354604904	2.451982624139334	1.987972377786656	0	-24.74788768789517	-3.395140484746916	-11.58000132048591	9.793848132074926	-0.4439473045988533	4.250290820099795	0	-21.37711699760957	1.659277491615732	3.206407148933037	0	0	0	0.7727836832924551	-15.17653500300889	33.32102669816617	6.877073873674248	24.84934304273573	0	0.001086504505416252	5.864426739860768	-13.22946628797529	43.91323342437266	6.688118255420808	33.4679063959686	0	0.001086504505416252
8.0250384	-10.11168038163244	-11.43502892825325	-127.4030613407635	0.2341366603171506	0.04326292228651554	-1.326684523481465	-22.57117169827992	-1.591976316804377	-3.241458145969817	5.899560354604904	2.451982624139334	1.987972377786656	0	-24.74788768789517	-3.395140484746916	-11.58000132048591	9.793848132074926	-0.4439473045988533	4.250290820099795	0	-21.37711699760957	1.659277491615732	3.206407148933037	0	0	0	0.7727867795972299	-15.17653498938407	33.32102262649656	6.877133545353614	24.84935375341741	0	0.001091426839395419	5.864429556390395	-13.22946642466248	43.91322733824554	6.688179695366159	33.46791163480737	0	0.001091426839395419
8.199909699999999	-10.10240117669608	-11.36397882487463	-127.2551548839084	0.2341366603171506	0.04326292228651554	-1.326684523481465	-22.57117169827992	-1.591976316804377	-3.241458145969817	5.899560354604904	2.451982624139334	1.987972377786656	0	-24.74788768789517	-3.395140484746916	-11.58000132048591	9.793848132074926	-0.4439473045988533	4.250290820099795	0	-21.37711699760957	1.659277491615732	3.206407148933037	0	0	0	0.7727846943555748	-15.17653499856333	33.32102537084927	6.877093246627138	24.84934652706761	0	0.001088105036738064	5.864427659664845	-13.22946633257408	43.91323144108694	6.688138201560473	33.46790810088519	0	0.001088105036738064
8.377793199999999	-10.1030101308985	-11.47292363331066	-127.4169544256749	0.2341366603171506	0.04326292228651554	-1.326684523481465	-22.57117169827992	-1.591976316804377	-3.241458145969817	5.899560354604904	2.451982624139334	1.987972377786656	0	-24.74788768789517	-3.395140484746916	-11.58000132048591	9.793848132074926	-0.4439473045988533	4.250290820099795	0	-21.37711699760957	1.659277491615732	3.206407148933037	0	0	0	0.7727878182039913	-15.17653498481312	33.32102126024121	6.877153594739694	24.8493573492547	0	0.001093079637953978	5.864430501130971	-13.22946647051929	43.91322529587083	6.688200339407176	33.46791339342454	0	0.001093079637953978
8.5507078	-10.13757676647011	-11.35668770073497	-127.4161975888797	0.2341366603171506	0.04326292228651554	-1.326684523481465	-22.57117169827992	-1.591976316804377	-3.241458145969817	5.899560354604904	2.451982624139334	1.987972377786656	0	-24.74788768789517	-3.395140484746916	-11.58000132048591	9.793848132074926	-0.4439473045988533	4.250290820099795	0	-21.37711699760957	1.659277491615732	3.206407148933037	0	0	0	0.7727848702042793	-15.17653499778879	33.32102513912401	6.877096659250185	24.84934713815171	0	0.001088386030684891	5.864427819602944	-13.2294663403445	43.91323109456163	6.688141715511987	33.46790839964518	0	0.001088386030684891
8.7256024	-10.62263046553962	-10.80470681725484	-130.065592571337	0.2341366603171506	0.04326292228651554	-1.326684523481465	-22.57117169827992	-1.591976316804377	-3.241458145969817	5.899560354604904	2.451982624139334	1.987972377786656	0	-24.74788768789517	-3.395140484746916	-11.58000132048591	9.793848132074926	-0.4439473045988533	4.250290820099795	0	-21.37711699760957	1.659277491615732	3.206407148933037	0	0	0	0.7727818677277085	-15.17653501087983	33.32102900934721	6.877042739824164	24.84933720957505	0	0.001083850125637956	5.864425084997381	-13.22946620901358	43.91323685444297	6.688086231757141	33.46790352059485	0	0.001083850125637956
8.900477199999999	-11.23550662920555	-10.1130171119472	-133.6443803769238	0.2341366603171506	0.04326292228651554	-1.326684523481465	-22.57117169827992	-1.591976316804377	-3.241458145969817	5.899560354604904	2.451982624139334	1.987972377786656	0	-24.74788768789517	-3.395140484746916	-11.58000132048591	9.793848132074926	-0.4439473045988533	4.250290820099795	0	-21.37711699760957	1.659277491615732	3.206407148933037	0	0	0	0.7757639735387444	-15.1765219645983	33.31715966362035	6.929421745556605	24.85927117461835	0	0.005610532062791357	5.867139790275094	-13.22959709134973	43.90747273816348	6.741904495440167	33.47279014309816	0	0.005610532062791357
9.0753863	-11.53959044628677	-9.756412606605455	-135.4504474715878	0.2341366603171506	0.04326292228651554	-1.326684523481465	-22.57117169827992	-1.591976316804377	-3.241458145969817	5.899560354604904	2.451982624139334	1.987972377786656	0	-24.74788768789517	-3.395140484746916	-11.58000132048591	9.793848132074926	-0.4439473045988533	4.250290820099795	0	-21.37711699760957	1.659277491615732	3.206407148933037	0	0	0	0.7757597170015111	-15.17652198316394	33.31716514956685	6.929350092506014	24.85925723066509	0	0.005604196294482244	5.867135913817522	-13.22959690509694	43.90748089763258	6.741830962133975	33.47278326848438	0	0.005604196294482244
9.250260000000001	-12.44437486800445	-8.46305066363878	-141.455481931181	0.2341366603171506	0.04326292228651554	-1.326684523481465	-22.57117169827992	-1.591976316804377	-3.241458145969817	5.899560354604904	2.451982624139334	1.987972377786656	0	-24.74788768789517	-3.395140484746916	-11.58000132048591	9.793848132074926	-0.4439473045988533	4.250290820099795	0	-21.37711699760957	1.659277491615732	3.206407148933037	0	0	0	0.775746171691048	-15.17652204220291	33.31718257805655	6.929125706774379	24.85921308808993	0	0.005584166463169365	5.867123576906227	-13.22959631281129	43.90750680791417	6.741600799641572	33.4727614858626	0	0.005584166463169365
9.4251623	-13.61545537357081	-6.239259625757347	-151.3591273064609	0.2341366603171506	0.04326292228651554	-1.326684523481465	-22.57117169827992	-1.591976316804377	-3.241458145969817	5.899560354604904	2.451982624139334	1.987972377786656	0	-24.74788768789517	-3.395140484746916	-11.58000132048591	9.793848132074926	-0.4439473045988533	4.250290820099795	0	-21.37711699760957	1.659277491615732	3.206407148933037	0	0	0	0.7775335599719244	-15.176514222438	33.31486327732527	6.960531731576939	24.86516788898486	0	0.008297654349215974	5.868750686951567	-13.22967476191772	43.90405173478874	6.773870363628971	33.47569067913701	0	0.008297654349215974
9.5781005	-13.56298397187163	-6.554070944486504	-150.5275575950979	0.2341366603171506	0.04326292228651554	-1.326684523481465	-22.57117169827992	-1.591976316804377	-3.241458145969817	5.899560354604904	2.451982624139334	1.987972377786656	0	-24.74788768789517	-3.395140484746916	-11.58000132048591	9.793848132074926	-0.4439473045988533	4.250290820099795	0	-21.37711699760957	1.659277491615732	3.206407148933037	0	0	0	0.7775454769347685	-15.17651417029128	33.31484780561267	6.960740226408396	24.8652076867923	0	0.00831580867535375	5.868761535204783	-13.22967528506199	43.90402868255072	6.774084456270188	33.47571024971599	0	0.00831580867535375
9.7499558	-13.52305629768329	-7.240028984691292	-149.8452662976249	0.2341366603171506	0.04326292228651554	-1.326684523481465	-22.57117169827992	-1.591976316804377	-3.241458145969817	5.899560354604904	2.451982624139334	1.987972377786656	0	-24.74788768789517	-3.395140484746916	-11.58000132048591	9.793848132074926	-0.4439473045988533	4.250290820099795	0	-21.37711699760957	1.659277491615732	3.206407148933037	0	0	0	0.7775869402966402	-15.17651398869863	33.31479387051843	6.961472752760282	24.86534683823388	0	0.00837934278041764	5.868799275853498	-13.22967710683001	43.90394828487475	6.77483676495171	33.47577863402338	0	0.00837934278041764
9.924866099999999	-13.46692313240759	-7.681529491060925	-149.1805199211044	0.2341366603171506	0.04326292228651554	-1.326684523481465	-22.57117169827992	-1.591976316804377	-3.241458145969817	5.899560354604904	2.451982624139334	1.987972377786656	0	-24.74788768789517	-3.395140484746916	-11.58000132048591	9.793848132074926	-0.4439473045988533	4.250290820099795	0	-21.37711699760957	1.659277491615732	3.206407148933037	0	0	0	0.7776108401331251	-15.1765138840396	33.31476279031554	6.961894155063559	24.86542698841864	0	0.008415932750418929	5.868821030237533	-13.2296781567868	43.9039019586471	6.77526952267044	33.47581802705167	0	0.008415932750418929
10.0997494	-11.19281598256591	-11.42836969168188	-134.0132456886253	0.2341366603171506	0.04326292228651554	-1.326684523481465	-22.57117169827992	-1.591976316804377	-3.241458145969817	5.899560354604904	2.451982624139334	1.987972377786656	0	-24.74788768789517	-3.395140484746916	-11.58000132048591	9.793848132074926	-0.4439473045988533	4.250290820099795	0	-21.37711699760957	1.659277491615732	3.206407148933037	0	0	0	0.7758592411959017	-15.17652154692689	33.31703542441368	6.931156392997759	24.85959354411258	0	0.005758040966021175	5.867226492604511	-13.22960128150507	43.9072874081269	6.743687854641325	33.47294832288907	0	0.005758040966021175
